<?xml version="1.0" encoding="UTF-8" standalone="no"?>
<!DOCTYPE svg PUBLIC "-//W3C//DTD SVG 1.1//EN"
 "http://www.w3.org/Graphics/SVG/1.1/DTD/svg11.dtd">
<!-- Generated by graphviz version 2.38.0 (20140413.2041)
 -->
<!-- Title: G Pages: 1 -->
<svg width="477pt" height="1070pt"
 viewBox="0.00 0.00 477.25 1070.00" xmlns="http://www.w3.org/2000/svg" xmlns:xlink="http://www.w3.org/1999/xlink">
<g id="graph0" class="graph" transform="scale(1 1) rotate(0) translate(4 1066)">
<title>G</title>
<polygon fill="white" stroke="none" points="-4,4 -4,-1066 473.254,-1066 473.254,4 -4,4"/>
<!-- A0 -->
<g id="node1" class="node"><title>A0</title>
<g transform="translate(58.7285,-852)" style="fill:none;stroke:black;stroke-width:1px"><circle cx="0" cy="-20" r="7.5" />
                <line x1="0" y1="-12.5" x2="0" y2="5" />
                <line x1="-15" y1="-5" x2="15" y2="-5" />
                <line x1="0" y1="5" x2="-15" y2="17" />
                <line x1="0" y1="5" x2="15" y2="17" /></g>
<text text-anchor="middle" x="58.7285" y="-827" font-family="Helvetica,sans-Serif" font-size="10.00">Client</text>
</g>
<!-- A2 -->
<g id="node3" class="node"><title>A2</title>
<ellipse fill="none" stroke="black" cx="233.421" cy="-666" rx="31.5864" ry="18"/>
<text text-anchor="middle" x="233.421" y="-663" font-family="Helvetica,sans-Serif" font-size="10.00">Login</text>
</g>
<!-- A0&#45;&gt;A2 -->
<g id="edge1" class="edge"><title>A0&#45;&gt;A2</title>
<path fill="none" stroke="black" d="M93.0254,-818.559C130.662,-777.368 190.254,-712.149 217.698,-682.114"/>
</g>
<!-- A4 -->
<g id="node5" class="node"><title>A4</title>
<ellipse fill="none" stroke="black" cx="233.421" cy="-909" rx="63.0787" ry="18"/>
<text text-anchor="middle" x="233.421" y="-906" font-family="Helvetica,sans-Serif" font-size="10.00">Search Database</text>
</g>
<!-- A0&#45;&gt;A4 -->
<g id="edge3" class="edge"><title>A0&#45;&gt;A4</title>
<path fill="none" stroke="black" d="M101.093,-867.934C128.035,-876.359 163.083,-887.318 190.195,-895.796"/>
</g>
<!-- A5 -->
<g id="node6" class="node"><title>A5</title>
<ellipse fill="none" stroke="black" cx="233.421" cy="-855" rx="53.8572" ry="18"/>
<text text-anchor="middle" x="233.421" y="-852" font-family="Helvetica,sans-Serif" font-size="10.00">Manage Deck</text>
</g>
<!-- A0&#45;&gt;A5 -->
<g id="edge4" class="edge"><title>A0&#45;&gt;A5</title>
<path fill="none" stroke="black" d="M101.093,-855C124.542,-855 154.132,-855 179.286,-855"/>
</g>
<!-- A1 -->
<g id="node2" class="node"><title>A1</title>
<g transform="translate(58.7285,-501)" style="fill:none;stroke:black;stroke-width:1px"><circle cx="0" cy="-20" r="7.5" />
                <line x1="0" y1="-12.5" x2="0" y2="5" />
                <line x1="-15" y1="-5" x2="15" y2="-5" />
                <line x1="0" y1="5" x2="-15" y2="17" />
                <line x1="0" y1="5" x2="15" y2="17" /></g>
<text text-anchor="middle" x="58.7285" y="-476" font-family="Helvetica,sans-Serif" font-size="10.00">Administrator</text>
</g>
<!-- A1&#45;&gt;A2 -->
<g id="edge12" class="edge"><title>A1&#45;&gt;A2</title>
<path fill="none" stroke="black" d="M98.4841,-540.356C135.478,-575.059 189.419,-625.661 216.153,-650.739"/>
</g>
<!-- A13 -->
<g id="node14" class="node"><title>A13</title>
<ellipse fill="none" stroke="black" cx="233.421" cy="-342" rx="65.9287" ry="18"/>
<text text-anchor="middle" x="233.421" y="-339" font-family="Helvetica,sans-Serif" font-size="10.00">Manage Database</text>
</g>
<!-- A1&#45;&gt;A13 -->
<g id="edge13" class="edge"><title>A1&#45;&gt;A13</title>
<path fill="none" stroke="black" d="M98.4841,-467.644C134.483,-433.874 186.532,-385.048 213.939,-359.338"/>
</g>
<!-- A3 -->
<g id="node4" class="node"><title>A3</title>
<ellipse fill="none" stroke="black" cx="409.32" cy="-666" rx="58.0498" ry="18"/>
<text text-anchor="middle" x="409.32" y="-663" font-family="Helvetica,sans-Serif" font-size="10.00">Create Account</text>
</g>
<!-- A2&#45;&gt;A3 -->
<g id="edge2" class="edge"><title>A2&#45;&gt;A3</title>
<path fill="none" stroke="black" stroke-dasharray="5,2" d="M265.111,-666C286.028,-666 314.558,-666 340.649,-666"/>
<polygon fill="black" stroke="black" points="350.887,-666 340.887,-670.5 345.887,-666 340.887,-666 340.887,-666 340.887,-666 345.887,-666 340.887,-661.5 350.887,-666 350.887,-666"/>
</g>
<!-- A6 -->
<g id="node7" class="node"><title>A6</title>
<ellipse fill="none" stroke="black" cx="409.32" cy="-720" rx="49.8246" ry="18"/>
<text text-anchor="middle" x="409.32" y="-717" font-family="Helvetica,sans-Serif" font-size="10.00">Modify Deck</text>
</g>
<!-- A5&#45;&gt;A6 -->
<g id="edge5" class="edge"><title>A5&#45;&gt;A6</title>
<path fill="none" stroke="black" stroke-dasharray="5,2" d="M249.721,-837.436C270.495,-814.388 309.615,-773.738 349.386,-747 354.412,-743.621 359.929,-740.47 365.508,-737.599"/>
<polygon fill="black" stroke="black" points="374.882,-733.044 367.855,-741.462 370.385,-735.229 365.888,-737.415 365.888,-737.415 365.888,-737.415 370.385,-735.229 363.921,-733.368 374.882,-733.044 374.882,-733.044"/>
</g>
<!-- A7 -->
<g id="node8" class="node"><title>A7</title>
<ellipse fill="none" stroke="black" cx="409.32" cy="-1044" rx="55.0125" ry="18"/>
<text text-anchor="middle" x="409.32" y="-1041" font-family="Helvetica,sans-Serif" font-size="10.00">Modify Format</text>
</g>
<!-- A5&#45;&gt;A7 -->
<g id="edge6" class="edge"><title>A5&#45;&gt;A7</title>
<path fill="none" stroke="black" stroke-dasharray="5,2" d="M275.729,-866.198C284.393,-870.077 292.867,-875.221 299.386,-882 343.733,-928.121 305.868,-970.095 349.386,-1017 352.658,-1020.53 356.481,-1023.63 360.579,-1026.35"/>
<polygon fill="black" stroke="black" points="369.29,-1031.41 358.383,-1030.28 364.967,-1028.9 360.644,-1026.39 360.644,-1026.39 360.644,-1026.39 364.967,-1028.9 362.905,-1022.5 369.29,-1031.41 369.29,-1031.41"/>
</g>
<!-- A8 -->
<g id="node9" class="node"><title>A8</title>
<ellipse fill="none" stroke="black" cx="409.32" cy="-990" rx="50.498" ry="18"/>
<text text-anchor="middle" x="409.32" y="-987" font-family="Helvetica,sans-Serif" font-size="10.00">Create Deck</text>
</g>
<!-- A5&#45;&gt;A8 -->
<g id="edge7" class="edge"><title>A5&#45;&gt;A8</title>
<path fill="none" stroke="black" stroke-dasharray="5,2" d="M274.113,-866.897C283.044,-870.774 292.042,-875.741 299.386,-882 331.584,-909.443 317.683,-934.987 349.386,-963 353.55,-966.679 358.3,-969.944 363.255,-972.817"/>
<polygon fill="black" stroke="black" points="372.314,-977.57 361.368,-976.908 367.886,-975.246 363.459,-972.923 363.459,-972.923 363.459,-972.923 367.886,-975.246 365.549,-968.939 372.314,-977.57 372.314,-977.57"/>
</g>
<!-- A9 -->
<g id="node10" class="node"><title>A9</title>
<ellipse fill="none" stroke="black" cx="409.32" cy="-936" rx="45.481" ry="18"/>
<text text-anchor="middle" x="409.32" y="-933" font-family="Helvetica,sans-Serif" font-size="10.00">Add Cards</text>
</g>
<!-- A5&#45;&gt;A9 -->
<g id="edge8" class="edge"><title>A5&#45;&gt;A9</title>
<path fill="none" stroke="black" stroke-dasharray="5,2" d="M269.097,-868.651C278.973,-872.743 289.682,-877.378 299.386,-882 322.187,-892.86 326.782,-897.734 349.386,-909 355.679,-912.137 362.412,-915.351 368.994,-918.418"/>
<polygon fill="black" stroke="black" points="378.461,-922.779 367.495,-922.682 373.92,-920.687 369.378,-918.595 369.378,-918.595 369.378,-918.595 373.92,-920.687 371.261,-914.508 378.461,-922.779 378.461,-922.779"/>
</g>
<!-- A10 -->
<g id="node11" class="node"><title>A10</title>
<ellipse fill="none" stroke="black" cx="409.32" cy="-882" rx="56.8574" ry="18"/>
<text text-anchor="middle" x="409.32" y="-879" font-family="Helvetica,sans-Serif" font-size="10.00">Remove Cards</text>
</g>
<!-- A5&#45;&gt;A10 -->
<g id="edge9" class="edge"><title>A5&#45;&gt;A10</title>
<path fill="none" stroke="black" stroke-dasharray="5,2" d="M282.862,-862.521C303.076,-865.66 326.771,-869.339 348.092,-872.649"/>
<polygon fill="black" stroke="black" points="358.019,-874.19 347.447,-877.103 353.079,-873.423 348.138,-872.656 348.138,-872.656 348.138,-872.656 353.079,-873.423 348.828,-868.209 358.019,-874.19 358.019,-874.19"/>
</g>
<!-- A11 -->
<g id="node12" class="node"><title>A11</title>
<ellipse fill="none" stroke="black" cx="409.32" cy="-828" rx="54.6814" ry="18"/>
<text text-anchor="middle" x="409.32" y="-825" font-family="Helvetica,sans-Serif" font-size="10.00">Remove Deck</text>
</g>
<!-- A5&#45;&gt;A11 -->
<g id="edge10" class="edge"><title>A5&#45;&gt;A11</title>
<path fill="none" stroke="black" stroke-dasharray="5,2" d="M282.862,-847.479C303.51,-844.273 327.79,-840.503 349.461,-837.139"/>
<polygon fill="black" stroke="black" points="359.536,-835.574 350.345,-841.555 354.595,-836.341 349.654,-837.109 349.654,-837.109 349.654,-837.109 354.595,-836.341 348.964,-832.662 359.536,-835.574 359.536,-835.574"/>
</g>
<!-- A12 -->
<g id="node13" class="node"><title>A12</title>
<ellipse fill="none" stroke="black" cx="409.32" cy="-774" rx="52.0017" ry="18"/>
<text text-anchor="middle" x="409.32" y="-771" font-family="Helvetica,sans-Serif" font-size="10.00">Modify Cards</text>
</g>
<!-- A5&#45;&gt;A12 -->
<g id="edge11" class="edge"><title>A5&#45;&gt;A12</title>
<path fill="none" stroke="black" stroke-dasharray="5,2" d="M265.612,-840.251C288.715,-829.351 320.981,-814.177 349.386,-801 355.282,-798.265 361.516,-795.39 367.637,-792.577"/>
<polygon fill="black" stroke="black" points="377.097,-788.237 369.884,-796.497 372.552,-790.322 368.008,-792.407 368.008,-792.407 368.008,-792.407 372.552,-790.322 366.131,-788.317 377.097,-788.237 377.097,-788.237"/>
</g>
<!-- A14 -->
<g id="node15" class="node"><title>A14</title>
<ellipse fill="none" stroke="black" cx="409.32" cy="-180" rx="55.0341" ry="18"/>
<text text-anchor="middle" x="409.32" y="-177" font-family="Helvetica,sans-Serif" font-size="10.00">Add Card info.</text>
</g>
<!-- A13&#45;&gt;A14 -->
<g id="edge14" class="edge"><title>A13&#45;&gt;A14</title>
<path fill="none" stroke="black" stroke-dasharray="5,2" d="M245.867,-324.079C264.582,-295.96 304.207,-241.167 349.386,-207 353.706,-203.733 358.484,-200.74 363.396,-198.034"/>
<polygon fill="black" stroke="black" points="372.311,-193.475 365.457,-202.034 367.86,-195.751 363.408,-198.028 363.408,-198.028 363.408,-198.028 367.86,-195.751 361.359,-194.021 372.311,-193.475 372.311,-193.475"/>
</g>
<!-- A15 -->
<g id="node16" class="node"><title>A15</title>
<ellipse fill="none" stroke="black" cx="409.32" cy="-126" rx="44.6448" ry="18"/>
<text text-anchor="middle" x="409.32" y="-123" font-family="Helvetica,sans-Serif" font-size="10.00">Add Rules</text>
</g>
<!-- A13&#45;&gt;A15 -->
<g id="edge15" class="edge"><title>A13&#45;&gt;A15</title>
<path fill="none" stroke="black" stroke-dasharray="5,2" d="M241.138,-323.965C255.63,-287.239 293.14,-203.028 349.386,-153 354.132,-148.779 359.649,-145.106 365.368,-141.946"/>
<polygon fill="black" stroke="black" points="374.437,-137.396 367.517,-145.903 369.968,-139.638 365.499,-141.88 365.499,-141.88 365.499,-141.88 369.968,-139.638 363.481,-137.858 374.437,-137.396 374.437,-137.396"/>
</g>
<!-- A16 -->
<g id="node17" class="node"><title>A16</title>
<ellipse fill="none" stroke="black" cx="409.32" cy="-72" rx="41.4724" ry="18"/>
<text text-anchor="middle" x="409.32" y="-69" font-family="Helvetica,sans-Serif" font-size="10.00">Add Sets</text>
</g>
<!-- A13&#45;&gt;A16 -->
<g id="edge16" class="edge"><title>A13&#45;&gt;A16</title>
<path fill="none" stroke="black" stroke-dasharray="5,2" d="M238.418,-323.953C249.026,-279.927 281.817,-165.743 349.386,-99 354.227,-94.2176 360.07,-90.188 366.17,-86.8225"/>
<polygon fill="black" stroke="black" points="375.206,-82.3564 368.235,-90.8215 370.724,-84.5719 366.241,-86.7874 366.241,-86.7874 366.241,-86.7874 370.724,-84.5719 364.247,-82.7533 375.206,-82.3564 375.206,-82.3564"/>
</g>
<!-- A17 -->
<g id="node18" class="node"><title>A17</title>
<ellipse fill="none" stroke="black" cx="409.32" cy="-18" rx="48.4919" ry="18"/>
<text text-anchor="middle" x="409.32" y="-15" font-family="Helvetica,sans-Serif" font-size="10.00">Add Fomrat</text>
</g>
<!-- A13&#45;&gt;A17 -->
<g id="edge17" class="edge"><title>A13&#45;&gt;A17</title>
<path fill="none" stroke="black" stroke-dasharray="5,2" d="M236.665,-323.789C243.801,-273.158 270.363,-128.935 349.386,-45 353.243,-40.9029 357.842,-37.3763 362.745,-34.3536"/>
<polygon fill="black" stroke="black" points="371.806,-29.4425 365.158,-38.164 367.41,-31.8252 363.014,-34.2078 363.014,-34.2078 363.014,-34.2078 367.41,-31.8252 360.87,-30.2515 371.806,-29.4425 371.806,-29.4425"/>
</g>
<!-- A18 -->
<g id="node19" class="node"><title>A18</title>
<ellipse fill="none" stroke="black" cx="409.32" cy="-612" rx="53.844" ry="18"/>
<text text-anchor="middle" x="409.32" y="-609" font-family="Helvetica,sans-Serif" font-size="10.00">Remove Card</text>
</g>
<!-- A13&#45;&gt;A18 -->
<g id="edge18" class="edge"><title>A13&#45;&gt;A18</title>
<path fill="none" stroke="black" stroke-dasharray="5,2" d="M238.418,-360.047C249.026,-404.073 281.817,-518.257 349.386,-585 352.904,-588.475 356.95,-591.552 361.24,-594.267"/>
<polygon fill="black" stroke="black" points="370.296,-599.338 359.372,-598.378 365.933,-596.895 361.571,-594.452 361.571,-594.452 361.571,-594.452 365.933,-596.895 363.77,-590.526 370.296,-599.338 370.296,-599.338"/>
</g>
<!-- A19 -->
<g id="node20" class="node"><title>A19</title>
<ellipse fill="none" stroke="black" cx="409.32" cy="-558" rx="56.0233" ry="18"/>
<text text-anchor="middle" x="409.32" y="-555" font-family="Helvetica,sans-Serif" font-size="10.00">Remove Rules</text>
</g>
<!-- A13&#45;&gt;A19 -->
<g id="edge19" class="edge"><title>A13&#45;&gt;A19</title>
<path fill="none" stroke="black" stroke-dasharray="5,2" d="M241.138,-360.035C255.63,-396.761 293.14,-480.972 349.386,-531 353.178,-534.373 357.462,-537.395 361.949,-540.086"/>
<polygon fill="black" stroke="black" points="370.748,-544.856 359.812,-544.046 366.352,-542.473 361.956,-540.09 361.956,-540.09 361.956,-540.09 366.352,-542.473 364.101,-536.134 370.748,-544.856 370.748,-544.856"/>
</g>
<!-- A20 -->
<g id="node21" class="node"><title>A20</title>
<ellipse fill="none" stroke="black" cx="409.32" cy="-504" rx="59.8683" ry="18"/>
<text text-anchor="middle" x="409.32" y="-501" font-family="Helvetica,sans-Serif" font-size="10.00">Remove Format</text>
</g>
<!-- A13&#45;&gt;A20 -->
<g id="edge20" class="edge"><title>A13&#45;&gt;A20</title>
<path fill="none" stroke="black" stroke-dasharray="5,2" d="M245.867,-359.921C264.582,-388.04 304.207,-442.833 349.386,-477 353.276,-479.942 357.539,-482.662 361.936,-485.151"/>
<polygon fill="black" stroke="black" points="371.075,-489.931 360.128,-489.283 366.644,-487.614 362.214,-485.296 362.214,-485.296 362.214,-485.296 366.644,-487.614 364.3,-481.309 371.075,-489.931 371.075,-489.931"/>
</g>
<!-- A21 -->
<g id="node22" class="node"><title>A21</title>
<ellipse fill="none" stroke="black" cx="409.32" cy="-450" rx="49.8354" ry="18"/>
<text text-anchor="middle" x="409.32" y="-447" font-family="Helvetica,sans-Serif" font-size="10.00">Remove Set</text>
</g>
<!-- A13&#45;&gt;A21 -->
<g id="edge21" class="edge"><title>A13&#45;&gt;A21</title>
<path fill="none" stroke="black" stroke-dasharray="5,2" d="M256.087,-359.092C278.621,-376.423 315.306,-403.41 349.386,-423 354.892,-426.165 360.835,-429.247 366.755,-432.129"/>
<polygon fill="black" stroke="black" points="375.971,-436.475 365.007,-436.28 371.449,-434.342 366.926,-432.21 366.926,-432.21 366.926,-432.21 371.449,-434.342 368.846,-428.139 375.971,-436.475 375.971,-436.475"/>
</g>
<!-- A22 -->
<g id="node23" class="node"><title>A22</title>
<ellipse fill="none" stroke="black" cx="409.32" cy="-396" rx="50.8415" ry="18"/>
<text text-anchor="middle" x="409.32" y="-393" font-family="Helvetica,sans-Serif" font-size="10.00">Update Card</text>
</g>
<!-- A13&#45;&gt;A22 -->
<g id="edge22" class="edge"><title>A13&#45;&gt;A22</title>
<path fill="none" stroke="black" stroke-dasharray="5,2" d="M277.855,-355.487C303.1,-363.326 334.938,-373.213 360.843,-381.257"/>
<polygon fill="black" stroke="black" points="370.455,-384.242 359.57,-385.574 365.68,-382.759 360.905,-381.276 360.905,-381.276 360.905,-381.276 365.68,-382.759 362.239,-376.979 370.455,-384.242 370.455,-384.242"/>
</g>
<!-- A23 -->
<g id="node24" class="node"><title>A23</title>
<ellipse fill="none" stroke="black" cx="409.32" cy="-342" rx="53.0209" ry="18"/>
<text text-anchor="middle" x="409.32" y="-339" font-family="Helvetica,sans-Serif" font-size="10.00">Update Rules</text>
</g>
<!-- A13&#45;&gt;A23 -->
<g id="edge23" class="edge"><title>A13&#45;&gt;A23</title>
<path fill="none" stroke="black" stroke-dasharray="5,2" d="M299.669,-342C314.782,-342 330.83,-342 345.822,-342"/>
<polygon fill="black" stroke="black" points="356.007,-342 346.007,-346.5 351.007,-342 346.007,-342 346.007,-342 346.007,-342 351.007,-342 346.007,-337.5 356.007,-342 356.007,-342"/>
</g>
<!-- A24 -->
<g id="node25" class="node"><title>A24</title>
<ellipse fill="none" stroke="black" cx="409.32" cy="-288" rx="56.8658" ry="18"/>
<text text-anchor="middle" x="409.32" y="-285" font-family="Helvetica,sans-Serif" font-size="10.00">Update Format</text>
</g>
<!-- A13&#45;&gt;A24 -->
<g id="edge24" class="edge"><title>A13&#45;&gt;A24</title>
<path fill="none" stroke="black" stroke-dasharray="5,2" d="M277.855,-328.513C302.278,-320.929 332.873,-311.428 358.295,-303.534"/>
<polygon fill="black" stroke="black" points="368.119,-300.483 359.904,-307.746 363.344,-301.966 358.569,-303.449 358.569,-303.449 358.569,-303.449 363.344,-301.966 357.235,-299.151 368.119,-300.483 368.119,-300.483"/>
</g>
<!-- A25 -->
<g id="node26" class="node"><title>A25</title>
<ellipse fill="none" stroke="black" cx="409.32" cy="-234" rx="46.8329" ry="18"/>
<text text-anchor="middle" x="409.32" y="-231" font-family="Helvetica,sans-Serif" font-size="10.00">Update Set</text>
</g>
<!-- A13&#45;&gt;A25 -->
<g id="edge25" class="edge"><title>A13&#45;&gt;A25</title>
<path fill="none" stroke="black" stroke-dasharray="5,2" d="M256.087,-324.908C278.621,-307.577 315.306,-280.59 349.386,-261 355.22,-257.646 361.545,-254.386 367.811,-251.359"/>
<polygon fill="black" stroke="black" points="376.889,-247.106 369.742,-255.424 372.361,-249.228 367.833,-251.349 367.833,-251.349 367.833,-251.349 372.361,-249.228 365.924,-247.274 376.889,-247.106 376.889,-247.106"/>
</g>
<!-- A26 -->
<g id="node27" class="node"><title>A26</title>
<polygon fill="none" stroke="black" points="106.152,-965 5.30547,-965 5.30547,-909 112.152,-909 112.152,-959 106.152,-965"/>
<polyline fill="none" stroke="black" points="106.152,-965 106.152,-959 "/>
<polyline fill="none" stroke="black" points="112.152,-959 106.152,-959 "/>
<text text-anchor="middle" x="58.7285" y="-952" font-family="Helvetica,sans-Serif" font-size="10.00">Should there be a</text>
<text text-anchor="middle" x="58.7285" y="-940" font-family="Helvetica,sans-Serif" font-size="10.00">relationship b/w</text>
<text text-anchor="middle" x="58.7285" y="-928" font-family="Helvetica,sans-Serif" font-size="10.00">Client and</text>
<text text-anchor="middle" x="58.7285" y="-916" font-family="Helvetica,sans-Serif" font-size="10.00">Administrator?</text>
</g>
</g>
</svg>
