<?xml version="1.0" encoding="UTF-8" standalone="no"?>
<!DOCTYPE svg PUBLIC "-//W3C//DTD SVG 1.1//EN"
 "http://www.w3.org/Graphics/SVG/1.1/DTD/svg11.dtd">
<!-- Generated by graphviz version 2.38.0 (20140413.2041)
 -->
<!-- Title: G Pages: 1 -->
<svg width="340pt" height="598pt"
 viewBox="0.00 0.00 339.51 598.00" xmlns="http://www.w3.org/2000/svg" xmlns:xlink="http://www.w3.org/1999/xlink">
<g id="graph0" class="graph" transform="scale(1 1) rotate(0) translate(4 594)">
<title>G</title>
<polygon fill="white" stroke="none" points="-4,4 -4,-594 335.507,-594 335.507,4 -4,4"/>
<!-- A0 -->
<g id="node1" class="node"><title>A0</title>
<polygon fill="none" stroke="black" points="109.941,-517.5 109.941,-589.5 212.947,-589.5 212.947,-517.5 109.941,-517.5"/>
<text text-anchor="middle" x="161.444" y="-576.5" font-family="Helvetica,sans-Serif" font-size="10.00">User</text>
<polyline fill="none" stroke="black" points="109.941,-569.5 212.947,-569.5 "/>
<text text-anchor="middle" x="161.444" y="-556.5" font-family="Helvetica,sans-Serif" font-size="10.00">Username:String</text>
<text text-anchor="middle" x="161.444" y="-544.5" font-family="Helvetica,sans-Serif" font-size="10.00">Password:String</text>
<polyline fill="none" stroke="black" points="109.941,-537.5 212.947,-537.5 "/>
<text text-anchor="middle" x="161.444" y="-524.5" font-family="Helvetica,sans-Serif" font-size="10.00"> </text>
</g>
<!-- A1 -->
<g id="node2" class="node"><title>A1</title>
<polygon fill="none" stroke="black" points="234.059,-390.5 234.059,-466.5 324.83,-466.5 324.83,-390.5 234.059,-390.5"/>
<text text-anchor="middle" x="279.444" y="-453.5" font-family="Helvetica,sans-Serif" font-size="10.00">Client</text>
<polyline fill="none" stroke="black" points="234.059,-446.5 324.83,-446.5 "/>
<text text-anchor="middle" x="279.444" y="-433.5" font-family="Helvetica,sans-Serif" font-size="10.00">getDeck()</text>
<text text-anchor="middle" x="279.444" y="-421.5" font-family="Helvetica,sans-Serif" font-size="10.00">removeDeck()</text>
<text text-anchor="middle" x="279.444" y="-409.5" font-family="Helvetica,sans-Serif" font-size="10.00">modifyDeck()</text>
<text text-anchor="middle" x="279.444" y="-397.5" font-family="Helvetica,sans-Serif" font-size="10.00">addDeck()</text>
</g>
<!-- A0&#45;&gt;A1 -->
<g id="edge3" class="edge"><title>A0&#45;&gt;A1</title>
<path fill="none" stroke="black" d="M202.524,-509.679C215.89,-495.747 230.611,-480.402 243.566,-466.898"/>
<polygon fill="none" stroke="black" points="199.655,-507.614 195.258,-517.253 204.707,-512.46 199.655,-507.614"/>
</g>
<!-- A2 -->
<g id="node3" class="node"><title>A2</title>
<polygon fill="none" stroke="black" points="0,-408.5 0,-448.5 86.888,-448.5 86.888,-408.5 0,-408.5"/>
<text text-anchor="middle" x="43.444" y="-435.5" font-family="Helvetica,sans-Serif" font-size="10.00">Administrator</text>
<polyline fill="none" stroke="black" points="0,-428.5 86.888,-428.5 "/>
<text text-anchor="middle" x="43.444" y="-415.5" font-family="Helvetica,sans-Serif" font-size="10.00"> </text>
</g>
<!-- A0&#45;&gt;A2 -->
<g id="edge4" class="edge"><title>A0&#45;&gt;A2</title>
<path fill="none" stroke="black" d="M120.7,-510.029C100.692,-489.173 77.5766,-465.079 61.8825,-448.72"/>
<polygon fill="none" stroke="black" points="118.181,-512.46 127.63,-517.253 123.233,-507.614 118.181,-512.46"/>
</g>
<!-- A3 -->
<g id="node4" class="node"><title>A3</title>
<polygon fill="none" stroke="black" points="232.384,-231.5 232.384,-339.5 326.504,-339.5 326.504,-231.5 232.384,-231.5"/>
<text text-anchor="middle" x="279.444" y="-326.5" font-family="Helvetica,sans-Serif" font-size="10.00">Deck</text>
<polyline fill="none" stroke="black" points="232.384,-319.5 326.504,-319.5 "/>
<text text-anchor="middle" x="279.444" y="-306.5" font-family="Helvetica,sans-Serif" font-size="10.00">name:String</text>
<text text-anchor="middle" x="279.444" y="-294.5" font-family="Helvetica,sans-Serif" font-size="10.00">format:String</text>
<polyline fill="none" stroke="black" points="232.384,-287.5 326.504,-287.5 "/>
<text text-anchor="middle" x="279.444" y="-274.5" font-family="Helvetica,sans-Serif" font-size="10.00">getCard()</text>
<text text-anchor="middle" x="279.444" y="-262.5" font-family="Helvetica,sans-Serif" font-size="10.00">addCard()</text>
<text text-anchor="middle" x="279.444" y="-250.5" font-family="Helvetica,sans-Serif" font-size="10.00">removeCard()</text>
<text text-anchor="middle" x="279.444" y="-238.5" font-family="Helvetica,sans-Serif" font-size="10.00">checkBanList()</text>
</g>
<!-- A1&#45;&gt;A3 -->
<g id="edge1" class="edge"><title>A1&#45;&gt;A3</title>
<path fill="none" stroke="black" d="M279.444,-378.366C279.444,-365.883 279.444,-352.413 279.444,-339.737"/>
<polygon fill="black" stroke="black" points="279.444,-378.454 283.444,-384.454 279.444,-390.454 275.444,-384.454 279.444,-378.454"/>
</g>
<!-- A4 -->
<g id="node5" class="node"><title>A4</title>
<polygon fill="none" stroke="black" points="227.381,-0.5 227.381,-180.5 331.507,-180.5 331.507,-0.5 227.381,-0.5"/>
<text text-anchor="middle" x="279.444" y="-167.5" font-family="Helvetica,sans-Serif" font-size="10.00">Card</text>
<polyline fill="none" stroke="black" points="227.381,-160.5 331.507,-160.5 "/>
<text text-anchor="middle" x="279.444" y="-147.5" font-family="Helvetica,sans-Serif" font-size="10.00">name:String</text>
<text text-anchor="middle" x="279.444" y="-135.5" font-family="Helvetica,sans-Serif" font-size="10.00">artist:String</text>
<text text-anchor="middle" x="279.444" y="-123.5" font-family="Helvetica,sans-Serif" font-size="10.00">cmc:int</text>
<text text-anchor="middle" x="279.444" y="-111.5" font-family="Helvetica,sans-Serif" font-size="10.00">mana:String</text>
<text text-anchor="middle" x="279.444" y="-99.5" font-family="Helvetica,sans-Serif" font-size="10.00">superType:String</text>
<text text-anchor="middle" x="279.444" y="-87.5" font-family="Helvetica,sans-Serif" font-size="10.00">subType:String</text>
<text text-anchor="middle" x="279.444" y="-75.5" font-family="Helvetica,sans-Serif" font-size="10.00">set:String</text>
<text text-anchor="middle" x="279.444" y="-63.5" font-family="Helvetica,sans-Serif" font-size="10.00">flavorText:String</text>
<text text-anchor="middle" x="279.444" y="-51.5" font-family="Helvetica,sans-Serif" font-size="10.00">rulesText:String</text>
<text text-anchor="middle" x="279.444" y="-39.5" font-family="Helvetica,sans-Serif" font-size="10.00">power:String</text>
<text text-anchor="middle" x="279.444" y="-27.5" font-family="Helvetica,sans-Serif" font-size="10.00">toughness:String</text>
<polyline fill="none" stroke="black" points="227.381,-20.5 331.507,-20.5 "/>
<text text-anchor="middle" x="279.444" y="-7.5" font-family="Helvetica,sans-Serif" font-size="10.00"> </text>
</g>
<!-- A3&#45;&gt;A4 -->
<g id="edge2" class="edge"><title>A3&#45;&gt;A4</title>
<path fill="none" stroke="black" d="M279.444,-219.125C279.444,-206.706 279.444,-193.518 279.444,-180.511"/>
<polygon fill="black" stroke="black" points="279.444,-219.251 283.444,-225.251 279.444,-231.251 275.444,-225.251 279.444,-219.251"/>
</g>
<!-- A5 -->
<g id="node6" class="node"><title>A5</title>
<polygon fill="cornsilk" stroke="black" points="209.757,-450.5 105.131,-450.5 105.131,-406.5 215.757,-406.5 215.757,-444.5 209.757,-450.5"/>
<polyline fill="none" stroke="black" points="209.757,-450.5 209.757,-444.5 "/>
<polyline fill="none" stroke="black" points="215.757,-444.5 209.757,-444.5 "/>
<text text-anchor="middle" x="160.444" y="-437.5" font-family="Helvetica,sans-Serif" font-size="10.00">Should we add the</text>
<text text-anchor="middle" x="160.444" y="-425.5" font-family="Helvetica,sans-Serif" font-size="10.00">getDeck() method</text>
<text text-anchor="middle" x="160.444" y="-413.5" font-family="Helvetica,sans-Serif" font-size="10.00">here?.</text>
</g>
<!-- A5&#45;&gt;A1 -->
<g id="edge5" class="edge"><title>A5&#45;&gt;A1</title>
<path fill="none" stroke="black" stroke-dasharray="5,2" d="M215.76,-428.5C218.372,-428.5 220.984,-428.5 223.596,-428.5"/>
<polygon fill="black" stroke="black" points="233.671,-428.5 223.671,-433 228.671,-428.5 223.671,-428.5 223.671,-428.5 223.671,-428.5 228.671,-428.5 223.671,-424 233.671,-428.5 233.671,-428.5"/>
</g>
</g>
</svg>
