<?xml version="1.0" encoding="UTF-8" standalone="no"?>
<!DOCTYPE svg PUBLIC "-//W3C//DTD SVG 1.1//EN"
 "http://www.w3.org/Graphics/SVG/1.1/DTD/svg11.dtd">
<!-- Generated by graphviz version 2.38.0 (20140413.2041)
 -->
<!-- Title: G Pages: 1 -->
<svg width="390pt" height="630pt"
 viewBox="0.00 0.00 390.44 630.00" xmlns="http://www.w3.org/2000/svg" xmlns:xlink="http://www.w3.org/1999/xlink">
<g id="graph0" class="graph" transform="scale(1 1) rotate(0) translate(4 626)">
<title>G</title>
<polygon fill="white" stroke="none" points="-4,4 -4,-626 386.444,-626 386.444,4 -4,4"/>
<!-- A0 -->
<g id="node1" class="node"><title>A0</title>
<polygon fill="none" stroke="black" points="115.277,-549.5 115.277,-621.5 221.612,-621.5 221.612,-549.5 115.277,-549.5"/>
<text text-anchor="middle" x="168.444" y="-608.5" font-family="Helvetica,sans-Serif" font-size="10.00">User</text>
<polyline fill="none" stroke="black" points="115.277,-601.5 221.612,-601.5 "/>
<text text-anchor="middle" x="168.444" y="-588.5" font-family="Helvetica,sans-Serif" font-size="10.00">&#45;Username:String</text>
<text text-anchor="middle" x="168.444" y="-576.5" font-family="Helvetica,sans-Serif" font-size="10.00">&#45;Password:String</text>
<polyline fill="none" stroke="black" points="115.277,-569.5 221.612,-569.5 "/>
<text text-anchor="middle" x="168.444" y="-556.5" font-family="Helvetica,sans-Serif" font-size="10.00"> </text>
</g>
<!-- A1 -->
<g id="node2" class="node"><title>A1</title>
<polygon fill="none" stroke="black" points="234.046,-402.5 234.046,-498.5 354.842,-498.5 354.842,-402.5 234.046,-402.5"/>
<text text-anchor="middle" x="294.444" y="-485.5" font-family="Helvetica,sans-Serif" font-size="10.00">Client</text>
<polyline fill="none" stroke="black" points="234.046,-478.5 354.842,-478.5 "/>
<text text-anchor="middle" x="294.444" y="-465.5" font-family="Helvetica,sans-Serif" font-size="10.00">&#45;deckList:List&lt;Deck&gt;</text>
<polyline fill="none" stroke="black" points="234.046,-458.5 354.842,-458.5 "/>
<text text-anchor="middle" x="294.444" y="-445.5" font-family="Helvetica,sans-Serif" font-size="10.00">+getDeck()</text>
<text text-anchor="middle" x="294.444" y="-433.5" font-family="Helvetica,sans-Serif" font-size="10.00">+removeDeck()</text>
<text text-anchor="middle" x="294.444" y="-421.5" font-family="Helvetica,sans-Serif" font-size="10.00">+modifyDeck()</text>
<text text-anchor="middle" x="294.444" y="-409.5" font-family="Helvetica,sans-Serif" font-size="10.00">+addDeck()</text>
</g>
<!-- A0&#45;&gt;A1 -->
<g id="edge3" class="edge"><title>A0&#45;&gt;A1</title>
<path fill="none" stroke="black" d="M208.897,-541.799C221.831,-528.147 236.225,-512.953 249.461,-498.982"/>
<polygon fill="none" stroke="black" points="206.216,-539.541 201.879,-549.208 211.297,-544.355 206.216,-539.541"/>
</g>
<!-- A2 -->
<g id="node3" class="node"><title>A2</title>
<polygon fill="none" stroke="black" points="0,-430.5 0,-470.5 86.888,-470.5 86.888,-430.5 0,-430.5"/>
<text text-anchor="middle" x="43.444" y="-457.5" font-family="Helvetica,sans-Serif" font-size="10.00">Administrator</text>
<polyline fill="none" stroke="black" points="0,-450.5 86.888,-450.5 "/>
<text text-anchor="middle" x="43.444" y="-437.5" font-family="Helvetica,sans-Serif" font-size="10.00"> </text>
</g>
<!-- A0&#45;&gt;A2 -->
<g id="edge4" class="edge"><title>A0&#45;&gt;A2</title>
<path fill="none" stroke="black" d="M128.426,-541.921C105.839,-517.889 78.7333,-489.048 61.3078,-470.507"/>
<polygon fill="none" stroke="black" points="125.876,-544.318 135.274,-549.208 130.976,-539.524 125.876,-544.318"/>
</g>
<!-- A3 -->
<g id="node4" class="node"><title>A3</title>
<polygon fill="none" stroke="black" points="235.438,-231.5 235.438,-351.5 353.451,-351.5 353.451,-231.5 235.438,-231.5"/>
<text text-anchor="middle" x="294.444" y="-338.5" font-family="Helvetica,sans-Serif" font-size="10.00">Deck</text>
<polyline fill="none" stroke="black" points="235.438,-331.5 353.451,-331.5 "/>
<text text-anchor="middle" x="294.444" y="-318.5" font-family="Helvetica,sans-Serif" font-size="10.00">&#45;cardList:List&lt;Card&gt;</text>
<text text-anchor="middle" x="294.444" y="-306.5" font-family="Helvetica,sans-Serif" font-size="10.00">&#45;name:String</text>
<text text-anchor="middle" x="294.444" y="-294.5" font-family="Helvetica,sans-Serif" font-size="10.00">&#45;format:String</text>
<polyline fill="none" stroke="black" points="235.438,-287.5 353.451,-287.5 "/>
<text text-anchor="middle" x="294.444" y="-274.5" font-family="Helvetica,sans-Serif" font-size="10.00">+getCard()</text>
<text text-anchor="middle" x="294.444" y="-262.5" font-family="Helvetica,sans-Serif" font-size="10.00">+addCard()</text>
<text text-anchor="middle" x="294.444" y="-250.5" font-family="Helvetica,sans-Serif" font-size="10.00">+removeCard()</text>
<text text-anchor="middle" x="294.444" y="-238.5" font-family="Helvetica,sans-Serif" font-size="10.00">&#45;checkBanList()</text>
</g>
<!-- A1&#45;&gt;A3 -->
<g id="edge1" class="edge"><title>A1&#45;&gt;A3</title>
<path fill="none" stroke="black" d="M294.444,-390.067C294.444,-377.453 294.444,-364.141 294.444,-351.542"/>
<polygon fill="black" stroke="black" points="294.444,-390.395 298.444,-396.395 294.444,-402.395 290.444,-396.395 294.444,-390.395"/>
</g>
<!-- A4 -->
<g id="node5" class="node"><title>A4</title>
<polygon fill="none" stroke="black" points="240.717,-0.5 240.717,-180.5 348.172,-180.5 348.172,-0.5 240.717,-0.5"/>
<text text-anchor="middle" x="294.444" y="-167.5" font-family="Helvetica,sans-Serif" font-size="10.00">Card</text>
<polyline fill="none" stroke="black" points="240.717,-160.5 348.172,-160.5 "/>
<text text-anchor="middle" x="294.444" y="-147.5" font-family="Helvetica,sans-Serif" font-size="10.00">&#45;name:String</text>
<text text-anchor="middle" x="294.444" y="-135.5" font-family="Helvetica,sans-Serif" font-size="10.00">&#45;artist:String</text>
<text text-anchor="middle" x="294.444" y="-123.5" font-family="Helvetica,sans-Serif" font-size="10.00">&#45;cmc:int</text>
<text text-anchor="middle" x="294.444" y="-111.5" font-family="Helvetica,sans-Serif" font-size="10.00">&#45;mana:String</text>
<text text-anchor="middle" x="294.444" y="-99.5" font-family="Helvetica,sans-Serif" font-size="10.00">&#45;superType:String</text>
<text text-anchor="middle" x="294.444" y="-87.5" font-family="Helvetica,sans-Serif" font-size="10.00">&#45;subType:String</text>
<text text-anchor="middle" x="294.444" y="-75.5" font-family="Helvetica,sans-Serif" font-size="10.00">&#45;set:String</text>
<text text-anchor="middle" x="294.444" y="-63.5" font-family="Helvetica,sans-Serif" font-size="10.00">&#45;flavorText:String</text>
<text text-anchor="middle" x="294.444" y="-51.5" font-family="Helvetica,sans-Serif" font-size="10.00">&#45;rulesText:String</text>
<text text-anchor="middle" x="294.444" y="-39.5" font-family="Helvetica,sans-Serif" font-size="10.00">&#45;power:String</text>
<text text-anchor="middle" x="294.444" y="-27.5" font-family="Helvetica,sans-Serif" font-size="10.00">&#45;toughness:String</text>
<polyline fill="none" stroke="black" points="240.717,-20.5 348.172,-20.5 "/>
<text text-anchor="middle" x="294.444" y="-7.5" font-family="Helvetica,sans-Serif" font-size="10.00"> </text>
</g>
<!-- A3&#45;&gt;A4 -->
<g id="edge2" class="edge"><title>A3&#45;&gt;A4</title>
<path fill="none" stroke="black" d="M294.444,-219.11C294.444,-206.641 294.444,-193.53 294.444,-180.653"/>
<polygon fill="black" stroke="black" points="294.444,-219.332 298.444,-225.332 294.444,-231.332 290.444,-225.332 294.444,-219.332"/>
</g>
<!-- A5 -->
<g id="node6" class="node"><title>A5</title>
<polygon fill="none" stroke="black" points="240.048,-567.5 240.048,-603.5 310.841,-603.5 310.841,-567.5 240.048,-567.5"/>
<text text-anchor="middle" x="275.444" y="-582.5" font-family="Helvetica,sans-Serif" font-size="10.00">Database</text>
</g>
<!-- A6 -->
<g id="node7" class="node"><title>A6</title>
<polygon fill="none" stroke="black" points="328.444,-567.5 328.444,-603.5 382.444,-603.5 382.444,-567.5 328.444,-567.5"/>
<text text-anchor="middle" x="355.172" y="-582.5" font-family="Helvetica,sans-Serif" font-size="10.00">Login</text>
</g>
<!-- A7 -->
<g id="node8" class="node"><title>A7</title>
<polygon fill="cornsilk" stroke="black" points="209.757,-472.5 105.131,-472.5 105.131,-428.5 215.757,-428.5 215.757,-466.5 209.757,-472.5"/>
<polyline fill="none" stroke="black" points="209.757,-472.5 209.757,-466.5 "/>
<polyline fill="none" stroke="black" points="215.757,-466.5 209.757,-466.5 "/>
<text text-anchor="middle" x="160.444" y="-459.5" font-family="Helvetica,sans-Serif" font-size="10.00">Should we add the</text>
<text text-anchor="middle" x="160.444" y="-447.5" font-family="Helvetica,sans-Serif" font-size="10.00">getDeck() method</text>
<text text-anchor="middle" x="160.444" y="-435.5" font-family="Helvetica,sans-Serif" font-size="10.00">here?.</text>
</g>
<!-- A7&#45;&gt;A1 -->
<g id="edge5" class="edge"><title>A7&#45;&gt;A1</title>
<path fill="none" stroke="black" stroke-dasharray="5,2" d="M215.928,-450.5C218.567,-450.5 221.206,-450.5 223.845,-450.5"/>
<polygon fill="black" stroke="black" points="234.024,-450.5 224.024,-455 229.024,-450.5 224.024,-450.5 224.024,-450.5 224.024,-450.5 229.024,-450.5 224.024,-446 234.024,-450.5 234.024,-450.5"/>
</g>
</g>
</svg>
