<?xml version="1.0" encoding="UTF-8" standalone="no"?>
<!DOCTYPE svg PUBLIC "-//W3C//DTD SVG 1.1//EN"
 "http://www.w3.org/Graphics/SVG/1.1/DTD/svg11.dtd">
<!-- Generated by graphviz version 2.38.0 (20140413.2041)
 -->
<!-- Title: G Pages: 1 -->
<svg width="280pt" height="552pt"
 viewBox="0.00 0.00 280.35 552.00" xmlns="http://www.w3.org/2000/svg" xmlns:xlink="http://www.w3.org/1999/xlink">
<g id="graph0" class="graph" transform="scale(1 1) rotate(0) translate(4 548)">
<title>G</title>
<polygon fill="white" stroke="none" points="-4,4 -4,-548 276.346,-548 276.346,4 -4,4"/>
<!-- A0 -->
<g id="node1" class="node"><title>A0</title>
<polygon fill="none" stroke="black" points="133.399,-435.5 133.399,-543.5 236.404,-543.5 236.404,-435.5 133.399,-435.5"/>
<text text-anchor="middle" x="184.901" y="-530.5" font-family="Helvetica,sans-Serif" font-size="10.00">User</text>
<polyline fill="none" stroke="black" points="133.399,-523.5 236.404,-523.5 "/>
<text text-anchor="middle" x="184.901" y="-510.5" font-family="Helvetica,sans-Serif" font-size="10.00">Username:String</text>
<text text-anchor="middle" x="184.901" y="-498.5" font-family="Helvetica,sans-Serif" font-size="10.00">Password:String</text>
<text text-anchor="middle" x="184.901" y="-486.5" font-family="Helvetica,sans-Serif" font-size="10.00">firstName:String</text>
<text text-anchor="middle" x="184.901" y="-474.5" font-family="Helvetica,sans-Serif" font-size="10.00">lastName:String</text>
<polyline fill="none" stroke="black" points="133.399,-467.5 236.404,-467.5 "/>
<text text-anchor="middle" x="184.901" y="-454.5" font-family="Helvetica,sans-Serif" font-size="10.00">get()</text>
<text text-anchor="middle" x="184.901" y="-442.5" font-family="Helvetica,sans-Serif" font-size="10.00">set()</text>
</g>
<!-- A1 -->
<g id="node2" class="node"><title>A1</title>
<polygon fill="none" stroke="black" points="113.901,-348.5 113.901,-384.5 167.901,-384.5 167.901,-348.5 113.901,-348.5"/>
<text text-anchor="middle" x="140.678" y="-363.5" font-family="Helvetica,sans-Serif" font-size="10.00">Client</text>
</g>
<!-- A0&#45;&gt;A1 -->
<g id="edge5" class="edge"><title>A0&#45;&gt;A1</title>
<path fill="none" stroke="black" d="M162.157,-425.951C156.615,-410.712 151.137,-395.646 147.13,-384.628"/>
<polygon fill="none" stroke="black" points="158.896,-427.226 165.602,-435.428 165.474,-424.834 158.896,-427.226"/>
</g>
<!-- A2 -->
<g id="node3" class="node"><title>A2</title>
<polygon fill="none" stroke="black" points="185.457,-348.5 185.457,-384.5 272.346,-384.5 272.346,-348.5 185.457,-348.5"/>
<text text-anchor="middle" x="228.901" y="-363.5" font-family="Helvetica,sans-Serif" font-size="10.00">Administrator</text>
</g>
<!-- A0&#45;&gt;A2 -->
<g id="edge7" class="edge"><title>A0&#45;&gt;A2</title>
<path fill="none" stroke="black" d="M207.646,-425.951C213.188,-410.712 218.666,-395.646 222.673,-384.628"/>
<polygon fill="none" stroke="black" points="204.329,-424.834 204.201,-435.428 210.907,-427.226 204.329,-424.834"/>
</g>
<!-- A3 -->
<g id="node4" class="node"><title>A3</title>
<polygon fill="none" stroke="black" points="107.734,-261.5 107.734,-297.5 174.069,-297.5 174.069,-261.5 107.734,-261.5"/>
<text text-anchor="middle" x="140.901" y="-276.5" font-family="Helvetica,sans-Serif" font-size="10.00">DeckList</text>
</g>
<!-- A1&#45;&gt;A3 -->
<g id="edge1" class="edge"><title>A1&#45;&gt;A3</title>
<path fill="none" stroke="black" d="M140.901,-336.24C140.901,-323.383 140.901,-308.73 140.901,-297.675"/>
<polygon fill="black" stroke="black" points="140.902,-336.299 144.902,-342.299 140.901,-348.299 136.902,-342.299 140.902,-336.299"/>
</g>
<!-- A4 -->
<g id="node5" class="node"><title>A4</title>
<polygon fill="none" stroke="black" points="113.901,-174.5 113.901,-210.5 167.901,-210.5 167.901,-174.5 113.901,-174.5"/>
<text text-anchor="middle" x="140.791" y="-189.5" font-family="Helvetica,sans-Serif" font-size="10.00">Deck</text>
</g>
<!-- A3&#45;&gt;A4 -->
<g id="edge2" class="edge"><title>A3&#45;&gt;A4</title>
<path fill="none" stroke="black" d="M140.901,-249.24C140.901,-236.383 140.901,-221.73 140.901,-210.675"/>
<polygon fill="black" stroke="black" points="140.902,-249.299 144.902,-255.299 140.901,-261.299 136.902,-255.299 140.902,-249.299"/>
</g>
<!-- A5 -->
<g id="node6" class="node"><title>A5</title>
<polygon fill="none" stroke="black" points="108.29,-87.5 108.29,-123.5 173.513,-123.5 173.513,-87.5 108.29,-87.5"/>
<text text-anchor="middle" x="140.901" y="-102.5" font-family="Helvetica,sans-Serif" font-size="10.00">CardList</text>
</g>
<!-- A4&#45;&gt;A5 -->
<g id="edge3" class="edge"><title>A4&#45;&gt;A5</title>
<path fill="none" stroke="black" d="M140.901,-162.24C140.901,-149.383 140.901,-134.73 140.901,-123.675"/>
<polygon fill="black" stroke="black" points="140.902,-162.299 144.902,-168.299 140.901,-174.299 136.902,-168.299 140.902,-162.299"/>
</g>
<!-- A6 -->
<g id="node7" class="node"><title>A6</title>
<polygon fill="none" stroke="black" points="113.901,-0.5 113.901,-36.5 167.901,-36.5 167.901,-0.5 113.901,-0.5"/>
<text text-anchor="middle" x="140.734" y="-15.5" font-family="Helvetica,sans-Serif" font-size="10.00">Card</text>
</g>
<!-- A5&#45;&gt;A6 -->
<g id="edge4" class="edge"><title>A5&#45;&gt;A6</title>
<path fill="none" stroke="black" d="M140.901,-75.2404C140.901,-62.3833 140.901,-47.7302 140.901,-36.6754"/>
<polygon fill="black" stroke="black" points="140.902,-75.299 144.902,-81.299 140.901,-87.299 136.902,-81.2989 140.902,-75.299"/>
</g>
<!-- A7 -->
<g id="node8" class="node"><title>A7</title>
<polygon fill="cornsilk" stroke="black" points="109.705,-507.5 0.0983327,-507.5 0.0983327,-471.5 115.705,-471.5 115.705,-501.5 109.705,-507.5"/>
<polyline fill="none" stroke="black" points="109.705,-507.5 109.705,-501.5 "/>
<polyline fill="none" stroke="black" points="115.705,-501.5 109.705,-501.5 "/>
<text text-anchor="middle" x="57.9015" y="-492.5" font-family="Helvetica,sans-Serif" font-size="10.00">Example of notes in</text>
<text text-anchor="middle" x="57.9015" y="-480.5" font-family="Helvetica,sans-Serif" font-size="10.00">yUML.</text>
</g>
<!-- A7&#45;&gt;A0 -->
<g id="edge6" class="edge"><title>A7&#45;&gt;A0</title>
<path fill="none" stroke="black" stroke-dasharray="5,2" d="M115.944,-489.5C118.279,-489.5 120.613,-489.5 122.948,-489.5"/>
<polygon fill="black" stroke="black" points="133.184,-489.5 123.184,-494 128.184,-489.5 123.184,-489.5 123.184,-489.5 123.184,-489.5 128.184,-489.5 123.184,-485 133.184,-489.5 133.184,-489.5"/>
</g>
</g>
</svg>
