<?xml version="1.0" encoding="UTF-8" standalone="no"?>
<!DOCTYPE svg PUBLIC "-//W3C//DTD SVG 1.1//EN"
 "http://www.w3.org/Graphics/SVG/1.1/DTD/svg11.dtd">
<!-- Generated by graphviz version 2.38.0 (20140413.2041)
 -->
<!-- Title: G Pages: 1 -->
<svg width="192pt" height="558pt"
 viewBox="0.00 0.00 191.51 558.00" xmlns="http://www.w3.org/2000/svg" xmlns:xlink="http://www.w3.org/1999/xlink">
<g id="graph0" class="graph" transform="scale(1 1) rotate(0) translate(4 554)">
<title>G</title>
<polygon fill="white" stroke="none" points="-4,4 -4,-554 187.507,-554 187.507,4 -4,4"/>
<!-- A0 -->
<g id="node1" class="node"><title>A0</title>
<polygon fill="none" stroke="black" points="44.56,-441.5 44.56,-549.5 147.566,-549.5 147.566,-441.5 44.56,-441.5"/>
<text text-anchor="middle" x="96.063" y="-536.5" font-family="Helvetica,sans-Serif" font-size="10.00">User</text>
<polyline fill="none" stroke="black" points="44.56,-529.5 147.566,-529.5 "/>
<text text-anchor="middle" x="96.063" y="-516.5" font-family="Helvetica,sans-Serif" font-size="10.00">Username:String</text>
<text text-anchor="middle" x="96.063" y="-504.5" font-family="Helvetica,sans-Serif" font-size="10.00">Password:String</text>
<text text-anchor="middle" x="96.063" y="-492.5" font-family="Helvetica,sans-Serif" font-size="10.00">firstName:String</text>
<text text-anchor="middle" x="96.063" y="-480.5" font-family="Helvetica,sans-Serif" font-size="10.00">lastName:String</text>
<polyline fill="none" stroke="black" points="44.56,-473.5 147.566,-473.5 "/>
<text text-anchor="middle" x="96.063" y="-460.5" font-family="Helvetica,sans-Serif" font-size="10.00">get()</text>
<text text-anchor="middle" x="96.063" y="-448.5" font-family="Helvetica,sans-Serif" font-size="10.00">set()</text>
</g>
<!-- A1 -->
<g id="node2" class="node"><title>A1</title>
<polygon fill="none" stroke="black" points="25.063,-354.5 25.063,-390.5 79.063,-390.5 79.063,-354.5 25.063,-354.5"/>
<text text-anchor="middle" x="51.84" y="-369.5" font-family="Helvetica,sans-Serif" font-size="10.00">Client</text>
</g>
<!-- A0&#45;&gt;A1 -->
<g id="edge3" class="edge"><title>A0&#45;&gt;A1</title>
<path fill="none" stroke="black" d="M73.318,-431.951C67.7765,-416.712 62.2981,-401.646 58.2913,-390.628"/>
<polygon fill="none" stroke="black" points="70.0572,-433.226 76.764,-441.428 76.6357,-430.834 70.0572,-433.226"/>
</g>
<!-- A2 -->
<g id="node3" class="node"><title>A2</title>
<polygon fill="none" stroke="black" points="96.619,-354.5 96.619,-390.5 183.507,-390.5 183.507,-354.5 96.619,-354.5"/>
<text text-anchor="middle" x="140.063" y="-369.5" font-family="Helvetica,sans-Serif" font-size="10.00">Administrator</text>
</g>
<!-- A0&#45;&gt;A2 -->
<g id="edge4" class="edge"><title>A0&#45;&gt;A2</title>
<path fill="none" stroke="black" d="M118.808,-431.951C124.35,-416.712 129.828,-401.646 133.835,-390.628"/>
<polygon fill="none" stroke="black" points="115.49,-430.834 115.362,-441.428 122.069,-433.226 115.49,-430.834"/>
</g>
<!-- A3 -->
<g id="node4" class="node"><title>A3</title>
<polygon fill="none" stroke="black" points="9.4495,-231.5 9.4495,-303.5 94.6765,-303.5 94.6765,-231.5 9.4495,-231.5"/>
<text text-anchor="middle" x="52.063" y="-290.5" font-family="Helvetica,sans-Serif" font-size="10.00">Deck</text>
<polyline fill="none" stroke="black" points="9.4495,-283.5 94.6765,-283.5 "/>
<text text-anchor="middle" x="52.063" y="-270.5" font-family="Helvetica,sans-Serif" font-size="10.00">name:String</text>
<text text-anchor="middle" x="52.063" y="-258.5" font-family="Helvetica,sans-Serif" font-size="10.00">format:String</text>
<polyline fill="none" stroke="black" points="9.4495,-251.5 94.6765,-251.5 "/>
<text text-anchor="middle" x="52.063" y="-238.5" font-family="Helvetica,sans-Serif" font-size="10.00"> </text>
</g>
<!-- A1&#45;&gt;A3 -->
<g id="edge1" class="edge"><title>A1&#45;&gt;A3</title>
<path fill="none" stroke="black" d="M52.063,-342.448C52.063,-330.471 52.063,-316.48 52.063,-303.911"/>
<polygon fill="black" stroke="black" points="52.0631,-342.492 56.063,-348.492 52.063,-354.492 48.063,-348.492 52.0631,-342.492"/>
</g>
<!-- A4 -->
<g id="node5" class="node"><title>A4</title>
<polygon fill="none" stroke="black" points="0,-0.5 0,-180.5 104.126,-180.5 104.126,-0.5 0,-0.5"/>
<text text-anchor="middle" x="52.063" y="-167.5" font-family="Helvetica,sans-Serif" font-size="10.00">Card</text>
<polyline fill="none" stroke="black" points="0,-160.5 104.126,-160.5 "/>
<text text-anchor="middle" x="52.063" y="-147.5" font-family="Helvetica,sans-Serif" font-size="10.00">name:String</text>
<text text-anchor="middle" x="52.063" y="-135.5" font-family="Helvetica,sans-Serif" font-size="10.00">artist:String</text>
<text text-anchor="middle" x="52.063" y="-123.5" font-family="Helvetica,sans-Serif" font-size="10.00">cmc:int</text>
<text text-anchor="middle" x="52.063" y="-111.5" font-family="Helvetica,sans-Serif" font-size="10.00">mana:String</text>
<text text-anchor="middle" x="52.063" y="-99.5" font-family="Helvetica,sans-Serif" font-size="10.00">superType:String</text>
<text text-anchor="middle" x="52.063" y="-87.5" font-family="Helvetica,sans-Serif" font-size="10.00">subType:String</text>
<text text-anchor="middle" x="52.063" y="-75.5" font-family="Helvetica,sans-Serif" font-size="10.00">set:String</text>
<text text-anchor="middle" x="52.063" y="-63.5" font-family="Helvetica,sans-Serif" font-size="10.00">flavorText:String</text>
<text text-anchor="middle" x="52.063" y="-51.5" font-family="Helvetica,sans-Serif" font-size="10.00">rulesText:String</text>
<text text-anchor="middle" x="52.063" y="-39.5" font-family="Helvetica,sans-Serif" font-size="10.00">power:int</text>
<text text-anchor="middle" x="52.063" y="-27.5" font-family="Helvetica,sans-Serif" font-size="10.00">toughness:int</text>
<polyline fill="none" stroke="black" points="0,-20.5 104.126,-20.5 "/>
<text text-anchor="middle" x="52.063" y="-7.5" font-family="Helvetica,sans-Serif" font-size="10.00"> </text>
</g>
<!-- A3&#45;&gt;A4 -->
<g id="edge2" class="edge"><title>A3&#45;&gt;A4</title>
<path fill="none" stroke="black" d="M52.063,-218.792C52.063,-206.964 52.063,-193.904 52.063,-180.79"/>
<polygon fill="black" stroke="black" points="52.0631,-219.086 56.063,-225.086 52.063,-231.086 48.063,-225.086 52.0631,-219.086"/>
</g>
</g>
</svg>
